<svg xmlns="http://www.w3.org/2000/svg" viewBox="0 0 512 512" role="img" aria-labelledby="title desc">
  <title id="title">Icono de Carnet UMA</title>
  <desc id="desc">Icono con una tarjeta universitaria azul y un codigo QR estilizado.</desc>
  <defs>
    <linearGradient id="bg" x1="64" x2="448" y1="48" y2="464" gradientUnits="userSpaceOnUse">
      <stop offset="0" stop-color="#163b68"/>
      <stop offset="1" stop-color="#49b2dd"/>
    </linearGradient>
    <linearGradient id="card" x1="137" x2="389" y1="97" y2="409" gradientUnits="userSpaceOnUse">
      <stop offset="0" stop-color="#ffffff"/>
      <stop offset="1" stop-color="#eef6fb"/>
    </linearGradient>
  </defs>
  <rect width="512" height="512" rx="128" fill="url(#bg)"/>
  <rect x="92" y="82" width="328" height="348" rx="54" fill="url(#card)"/>
  <rect x="122" y="116" width="268" height="52" rx="26" fill="#163b68"/>
  <rect x="122" y="200" width="126" height="152" rx="26" fill="#d9e9f6"/>
  <rect x="270" y="200" width="120" height="120" rx="18" fill="#ffffff" stroke="#163b68" stroke-width="10"/>
  <rect x="290" y="220" width="24" height="24" rx="6" fill="#163b68"/>
  <rect x="326" y="220" width="24" height="24" rx="6" fill="#163b68"/>
  <rect x="290" y="256" width="24" height="24" rx="6" fill="#163b68"/>
  <rect x="362" y="256" width="8" height="8" rx="4" fill="#163b68"/>
  <rect x="326" y="292" width="24" height="24" rx="6" fill="#163b68"/>
  <rect x="362" y="292" width="8" height="8" rx="4" fill="#163b68"/>
  <rect x="282" y="366" width="108" height="28" rx="14" fill="#49b2dd"/>
  <rect x="122" y="376" width="120" height="22" rx="11" fill="#163b68"/>
  <circle cx="185" cy="246" r="34" fill="#49b2dd"/>
  <rect x="138" y="292" width="94" height="16" rx="8" fill="#163b68" opacity=".22"/>
  <rect x="138" y="320" width="74" height="16" rx="8" fill="#163b68" opacity=".14"/>
</svg>
